<?xml version="1.0" encoding="UTF-8" standalone="no"?>
<svg
   xmlns:dc="http://purl.org/dc/elements/1.1/"
   xmlns:cc="http://creativecommons.org/ns#"
   xmlns:rdf="http://www.w3.org/1999/02/22-rdf-syntax-ns#"
   xmlns:svg="http://www.w3.org/2000/svg"
   xmlns="http://www.w3.org/2000/svg"
   xmlns:sodipodi="http://sodipodi.sourceforge.net/DTD/sodipodi-0.dtd"
   xmlns:inkscape="http://www.inkscape.org/namespaces/inkscape"
   width="264"
   height="80"
   viewBox="0 0 69.850308 21.166667"
   version="1.1"
   id="svg1092"
   inkscape:version="1.0.2 (e86c870879, 2021-01-15)"
   sodipodi:docname="fedora-status.svg">
  <defs
     id="defs1086" />
  <sodipodi:namedview
     id="base"
     pagecolor="#ffffff"
     bordercolor="#666666"
     borderopacity="1.0"
     inkscape:pageopacity="0.0"
     inkscape:pageshadow="2"
     inkscape:zoom="0.98994949"
     inkscape:cx="211.79785"
     inkscape:cy="55.012722"
     inkscape:document-units="mm"
     inkscape:current-layer="g1084"
     inkscape:document-rotation="0"
     showgrid="false"
     fit-margin-top="0"
     fit-margin-left="0"
     fit-margin-right="0"
     fit-margin-bottom="0"
     units="px"
     inkscape:window-width="1920"
     inkscape:window-height="1163"
     inkscape:window-x="0"
     inkscape:window-y="0"
     inkscape:window-maximized="1"
     inkscape:snap-bbox="true"
     inkscape:snap-page="true"
     inkscape:snap-global="false" />
  <metadata
     id="metadata1089">
    <rdf:RDF>
      <cc:Work
         rdf:about="">
        <dc:format>image/svg+xml</dc:format>
        <dc:type
           rdf:resource="http://purl.org/dc/dcmitype/StillImage" />
        <dc:title></dc:title>
      </cc:Work>
    </rdf:RDF>
  </metadata>
  <g
     inkscape:label="Layer 1"
     inkscape:groupmode="layer"
     id="layer1"
     transform="translate(290.17272,-114.43032)">
    <g
       id="g1084"
       transform="translate(-800.94649,248.08984)">
      <text
         id="text1036"
         y="-118.85447"
         x="531.4682"
         style="font-style:normal;font-weight:normal;font-size:11.6348px;line-height:1.25;font-family:sans-serif;letter-spacing:0px;word-spacing:0px;fill:#294172;fill-opacity:1;stroke:none;stroke-width:0.290869"
         xml:space="preserve"><tspan
           style="font-style:normal;font-variant:normal;font-weight:600;font-stretch:normal;font-family:Montserrat;-inkscape-font-specification:'Montserrat Semi-Bold';letter-spacing:-0.199937px;fill:#294172;fill-opacity:1;stroke-width:0.290869"
           y="-118.85447"
           x="531.4682"
           id="tspan1034"
           sodipodi:role="line">STATUS</tspan></text>
      <path
         id="path1038"
         style="fill:#51a2da;fill-opacity:1;fill-rule:nonzero;stroke:none;stroke-width:0.262919"
         d="m 521.12937,-130.42203 c -3.95467,0 -7.15969,3.20392 -7.16227,7.15769 h -10e-4 v 5.54421 h 10e-4 c 0.001,0.8976 0.72918,1.62417 1.62724,1.62417 h 0.008 10e-4 5.52894 c 3.95512,-0.002 7.15922,-3.20749 7.15922,-7.16228 0,-3.95644 -3.2058,-7.16379 -7.16227,-7.16379 z m 1.4517,2.94764 c 1.20287,0 2.33857,0.92168 2.33857,2.19204 0,0.11782 -4.4e-4,0.23577 -0.0198,0.36941 -0.0333,0.33799 -0.34145,0.58038 -0.67777,0.53274 -0.33629,-0.0483 -0.56443,-0.3666 -0.5022,-0.70066 0.005,-0.0381 0.008,-0.0986 0.008,-0.20149 0,-0.72026 -0.58901,-0.99833 -1.14639,-0.99833 -0.55705,0 -1.05957,0.46842 -1.06091,0.99833 0.01,0.61298 0,1.22157 0,1.83331 l 1.03343,-0.008 c 0.80716,-0.0167 0.81619,1.19987 0.009,1.19371 l -1.0426,0.008 c -0.003,0.49303 0.004,0.4035 10e-4,0.6518 0,0 0.009,0.60223 -0.01,1.0594 -0.12478,1.34264 -1.26755,2.41642 -2.64083,2.41642 -1.45555,0 -2.65607,-1.19084 -2.65607,-2.64998 0.0437,-1.50108 1.24185,-2.68078 2.74918,-2.66677 l 0.83958,-0.006 v 1.19218 l -0.83958,0.008 h -0.006 c -0.82845,0.0245 -1.53732,0.58588 -1.55091,1.47305 0,0.80838 0.65329,1.45628 1.4639,1.45628 0.80927,0 1.45627,-0.58942 1.45627,-1.45475 0.01,-1.43504 -0.006,-3.02025 -0.001,-4.51076 4.5e-4,-0.0838 0.005,-0.15034 0.0137,-0.24271 0.13665,-1.10354 1.12377,-1.94474 2.24089,-1.94474 z" />
    </g>
  </g>
</svg>
